<svg width="1em" height="1em" viewBox="0 0 20 20" fill="none" xmlns="http://www.w3.org/2000/svg">
<path d="M11.0822 2.62305L18.2772 15.0847C18.3869 15.2747 18.4446 15.4903 18.4446 15.7097C18.4446 15.9291 18.3869 16.1447 18.2772 16.3347C18.1675 16.5247 18.0097 16.6825 17.8196 16.7922C17.6296 16.9019 17.4141 16.9597 17.1947 16.9597H2.80466C2.58524 16.9597 2.36969 16.9019 2.17967 16.7922C1.98965 16.6825 1.83185 16.5247 1.72215 16.3347C1.61244 16.1447 1.55469 15.9291 1.55469 15.7097C1.55469 15.4903 1.61245 15.2747 1.72216 15.0847L8.91716 2.62305C9.39799 1.78971 10.6005 1.78971 11.0822 2.62305ZM9.99966 12.4997C9.77864 12.4997 9.56668 12.5875 9.4104 12.7438C9.25412 12.9001 9.16632 13.112 9.16632 13.333C9.16632 13.5541 9.25412 13.766 9.4104 13.9223C9.56668 14.0786 9.77864 14.1664 9.99966 14.1664C10.2207 14.1664 10.4326 14.0786 10.5889 13.9223C10.7452 13.766 10.833 13.5541 10.833 13.333C10.833 13.112 10.7452 12.9001 10.5889 12.7438C10.4326 12.5875 10.2207 12.4997 9.99966 12.4997ZM9.99966 6.66638C9.79554 6.66641 9.59854 6.74134 9.44601 6.87698C9.29348 7.01261 9.19604 7.1995 9.17216 7.40221L9.16632 7.49971V10.833C9.16656 11.0454 9.24789 11.2497 9.3937 11.4042C9.5395 11.5586 9.73878 11.6516 9.95082 11.664C10.1629 11.6765 10.3716 11.6075 10.5345 11.4712C10.6974 11.3348 10.8021 11.1415 10.8272 10.9305L10.833 10.833V7.49971C10.833 7.2787 10.7452 7.06674 10.5889 6.91046C10.4326 6.75418 10.2207 6.66638 9.99966 6.66638Z" fill="currentColor"/>
</svg>
