<svg width="1em" height="1em" viewBox="0 0 16 16" fill="none" xmlns="http://www.w3.org/2000/svg">
<path d="M7.99998 1.33334C11.682 1.33334 14.6666 4.31801 14.6666 8.00001C14.6666 11.682 11.682 14.6667 7.99998 14.6667C4.31798 14.6667 1.33331 11.682 1.33331 8.00001C1.33331 4.31801 4.31798 1.33334 7.99998 1.33334ZM7.99331 6.66668H7.33331C7.16339 6.66687 6.99996 6.73193 6.8764 6.84858C6.75284 6.96522 6.67849 7.12465 6.66853 7.29427C6.65857 7.4639 6.71376 7.63093 6.82282 7.76123C6.93188 7.89153 7.08658 7.97527 7.25531 7.99534L7.33331 8.00001V11.3267C7.33331 11.6733 7.59598 11.96 7.93331 11.996L8.00665 12H8.33331C8.47352 12 8.61016 11.9558 8.7238 11.8737C8.83744 11.7916 8.9223 11.6757 8.96631 11.5426C9.01031 11.4095 9.01123 11.2658 8.96892 11.1322C8.92661 10.9985 8.84323 10.8816 8.73065 10.798L8.66665 10.756V7.34001C8.66665 6.99334 8.40398 6.70668 8.06665 6.67068L7.99331 6.66668ZM7.99998 4.66668C7.82317 4.66668 7.6536 4.73691 7.52858 4.86194C7.40355 4.98696 7.33331 5.15653 7.33331 5.33334C7.33331 5.51015 7.40355 5.67972 7.52858 5.80475C7.6536 5.92977 7.82317 6.00001 7.99998 6.00001C8.17679 6.00001 8.34636 5.92977 8.47138 5.80475C8.59641 5.67972 8.66665 5.51015 8.66665 5.33334C8.66665 5.15653 8.59641 4.98696 8.47138 4.86194C8.34636 4.73691 8.17679 4.66668 7.99998 4.66668Z" fill="currentColor"/>
</svg>
