<svg width="1em" height="1em" viewBox="0 0 16 16" fill="none" xmlns="http://www.w3.org/2000/svg">
<path fill-rule="evenodd" clip-rule="evenodd" d="M5.52869 8.47124C5.40371 8.34622 5.3335 8.17668 5.3335 7.9999C5.3335 7.82313 5.40371 7.65359 5.52869 7.52857L9.30002 3.75724C9.36152 3.69356 9.43508 3.64277 9.51642 3.60784C9.59775 3.5729 9.68523 3.55451 9.77375 3.55374C9.86227 3.55297 9.95006 3.56983 10.032 3.60336C10.1139 3.63688 10.1884 3.68638 10.251 3.74897C10.3135 3.81157 10.363 3.886 10.3966 3.96793C10.4301 4.04986 10.447 4.13765 10.4462 4.22617C10.4454 4.31469 10.427 4.40217 10.3921 4.48351C10.3571 4.56484 10.3064 4.63841 10.2427 4.6999L6.94269 7.9999L10.2427 11.2999C10.3641 11.4256 10.4313 11.594 10.4298 11.7688C10.4283 11.9436 10.3582 12.1108 10.2346 12.2344C10.111 12.3581 9.94375 12.4282 9.76895 12.4297C9.59416 12.4312 9.42575 12.364 9.30002 12.2426L5.52869 8.47124Z" fill="currentColor"/>
</svg>
