<svg width="32" height="32" viewBox="0 0 32 32" fill="none" xmlns="http://www.w3.org/2000/svg">
<g clip-path="url(#clip0_274_4621)">
<path d="M9.45432 16C9.45432 15.1967 8.80308 14.5454 7.99978 14.5454H2.1816C1.3783 14.5454 0.727051 15.1967 0.727051 16C0.727051 16.8033 1.3783 17.4545 2.1816 17.4545H7.99978C8.80308 17.4545 9.45432 16.8033 9.45432 16Z" fill="#526CFF"/>
<path d="M29.8177 14.5454H26.9086C26.1054 14.5454 25.4541 15.1967 25.4541 16C25.4541 16.8033 26.1054 17.4545 26.9086 17.4545H29.8177C30.621 17.4545 31.2723 16.8033 31.2723 16C31.2723 15.1967 30.621 14.5454 29.8177 14.5454Z" fill="#526CFF"/>
<path d="M16.727 8.72727C17.5303 8.72727 18.1816 8.07603 18.1816 7.27273V1.45455C18.1816 0.651248 17.5303 0 16.727 0C15.9237 0 15.2725 0.651248 15.2725 1.45455V7.27273C15.2725 8.07603 15.9237 8.72727 16.727 8.72727Z" fill="#526CFF"/>
<path d="M16.727 23.2727C15.9237 23.2727 15.2725 23.924 15.2725 24.7273V30.5455C15.2725 31.3488 15.9237 32 16.727 32C17.5303 32 18.1816 31.3488 18.1816 30.5455V24.7273C18.1816 23.924 17.5303 23.2727 16.727 23.2727Z" fill="#526CFF"/>
<path d="M7.47036 4.68625C6.9025 4.11821 5.98149 4.1183 5.41334 4.68625C4.84529 5.2543 4.84529 6.17522 5.41334 6.74327L9.52747 10.8575C9.8115 11.1415 10.1838 11.2836 10.5559 11.2836C10.9281 11.2836 11.3005 11.1415 11.5844 10.8576C12.1524 10.2896 12.1524 9.36863 11.5844 8.80058L7.47036 4.68625Z" fill="#526CFF"/>
<path d="M23.9269 21.1427C23.3589 20.5747 22.4379 20.5747 21.8698 21.1427C21.3018 21.7107 21.3019 22.6317 21.8698 23.1997L25.9841 27.3138C26.2681 27.5978 26.6404 27.7397 27.0126 27.7397C27.3849 27.7397 27.7572 27.5977 28.0411 27.3138C28.6091 26.7457 28.6091 25.8248 28.0411 25.2567L23.9269 21.1427Z" fill="#526CFF"/>
<path d="M9.52738 21.1427L5.41334 25.2567C4.84529 25.8248 4.84529 26.7457 5.41334 27.3137C5.69737 27.5978 6.06963 27.7397 6.4419 27.7397C6.81416 27.7397 7.18643 27.5978 7.47036 27.3137L11.5844 23.1997C12.1524 22.6317 12.1524 21.7107 11.5844 21.1427C11.0163 20.5746 10.0953 20.5746 9.52738 21.1427Z" fill="#526CFF"/>
</g>
<defs>
<clipPath id="clip0_274_4621">
<rect width="32" height="32" fill="white"/>
</clipPath>
</defs>
</svg>
