<svg width="1em" height="1em" viewBox="0 0 25 24" fill="none" xmlns="http://www.w3.org/2000/svg">
<path fill-rule="evenodd" clip-rule="evenodd" d="M22.34 6.05642C22.3836 5.79174 22.3555 5.5202 22.2585 5.2701C22.1615 5.02 21.9992 4.80048 21.7885 4.63443C21.5778 4.46838 21.3265 4.36186 21.0606 4.32598C20.7948 4.2901 20.5242 4.32616 20.277 4.43042L3.17703 11.6304C1.98503 12.1324 1.92403 13.8564 3.17703 14.3764C4.41775 14.8939 5.67655 15.3668 6.95103 15.7944C8.11903 16.1804 9.39303 16.5374 10.414 16.6384C10.693 16.9724 11.044 17.2944 11.402 17.5884C11.949 18.0384 12.607 18.5014 13.287 18.9454C14.649 19.8354 16.16 20.6864 17.178 21.2404C18.395 21.9004 19.852 21.1404 20.07 19.8134L22.34 6.05642ZM5.09403 12.9934L20.218 6.62542L18.1 19.4654C17.101 18.9224 15.662 18.1094 14.38 17.2714C13.7892 16.8921 13.2187 16.4818 12.671 16.0424C12.5246 15.9228 12.3825 15.7981 12.245 15.6684L16.206 11.7084C16.3937 11.5209 16.4991 11.2665 16.4992 11.0013C16.4993 10.736 16.394 10.4816 16.2065 10.2939C16.019 10.1063 15.7647 10.0008 15.4994 10.0007C15.2341 10.0006 14.9797 10.1059 14.792 10.2934L10.455 14.6304C9.72103 14.5364 8.69903 14.2644 7.57703 13.8944C6.74172 13.6162 5.91409 13.3154 5.09503 12.9924L5.09403 12.9934Z" fill="currentColor"/>
</svg>
