<svg width="1em" height="1em" viewBox="0 0 16 16" fill="none" xmlns="http://www.w3.org/2000/svg">
<path d="M7.99992 1.33334C11.6819 1.33334 14.6666 4.318 14.6666 8C14.6666 11.682 11.6819 14.6667 7.99992 14.6667C4.31792 14.6667 1.33325 11.682 1.33325 8C1.33325 4.318 4.31792 1.33334 7.99992 1.33334ZM7.99992 10C7.82311 10 7.65354 10.0702 7.52851 10.1953C7.40349 10.3203 7.33325 10.4899 7.33325 10.6667C7.33325 10.8435 7.40349 11.0131 7.52851 11.1381C7.65354 11.2631 7.82311 11.3333 7.99992 11.3333C8.17673 11.3333 8.3463 11.2631 8.47132 11.1381C8.59635 11.0131 8.66659 10.8435 8.66659 10.6667C8.66659 10.4899 8.59635 10.3203 8.47132 10.1953C8.3463 10.0702 8.17673 10 7.99992 10ZM7.99992 4C7.83663 4.00002 7.67903 4.05997 7.557 4.16848C7.43498 4.27699 7.35702 4.4265 7.33792 4.58867L7.33325 4.66667V8.66667C7.33344 8.83659 7.3985 9.00002 7.51515 9.12358C7.6318 9.24714 7.79122 9.32149 7.96085 9.33145C8.13048 9.34141 8.2975 9.28622 8.42781 9.17716C8.55811 9.0681 8.64185 8.9134 8.66192 8.74467L8.66659 8.66667V4.66667C8.66659 4.48986 8.59635 4.32029 8.47132 4.19526C8.3463 4.07024 8.17673 4 7.99992 4Z" fill="currentColor"/>
</svg>
